<svg width="30" height="28" viewBox="0 0 30 28" fill="none" xmlns="http://www.w3.org/2000/svg">
<path d="M25.7039 28H4.34748C3.75215 27.974 3.16742 27.8218 2.6268 27.5523C2.08617 27.283 1.60025 26.9015 1.19683 26.43C0.793406 25.9585 0.480408 25.406 0.275754 24.8043C0.0710993 24.2025 -0.0212278 23.5633 0.00409429 22.9231V17.3846C0.00409429 17.0174 0.139752 16.6652 0.381214 16.4056C0.622692 16.1458 0.95018 16 1.29166 16C1.63316 16 1.96064 16.1458 2.20211 16.4056C2.44358 16.6652 2.57923 17.0174 2.57923 17.3846V22.9231C2.53492 23.4712 2.6885 24.0167 3.00814 24.4463C3.32776 24.8761 3.78894 25.1569 4.29598 25.2308H25.7039C26.211 25.1569 26.6721 24.8761 26.9918 24.4463C27.3115 24.0167 27.4649 23.4712 27.4207 22.9231V17.3846C27.4207 17.0174 27.5563 16.6652 27.7978 16.4056C28.0392 16.1458 28.3668 16 28.7082 16C29.0497 16 29.3772 16.1458 29.6186 16.4056C29.8602 16.6652 29.9958 17.0174 29.9958 17.3846V22.9231C30.0473 24.2069 29.6251 25.4604 28.8214 26.4112C28.0176 27.3622 26.8972 27.933 25.7039 28Z" fill="#5E5E5E"/>
<path d="M15 22C14.8334 22.0006 14.6682 21.9726 14.5144 21.9174C14.3605 21.8624 14.2208 21.7812 14.1038 21.6789L7.34036 15.8409C7.11636 15.6334 6.99441 15.3588 7.0002 15.0752C7.006 14.7917 7.13908 14.5212 7.37144 14.3205C7.60379 14.12 7.91725 14.0051 8.24579 14.0002C8.57432 13.9952 8.89227 14.1004 9.13268 14.2938L15 19.3583L20.8673 14.2938C21.1077 14.1004 21.4256 13.9952 21.7541 14.0002C22.0827 14.0051 22.3962 14.12 22.6285 14.3205C22.8608 14.5212 22.9939 14.7917 22.9998 15.0752C23.0056 15.3588 22.8836 15.6334 22.6596 15.8409L15.8961 21.6789C15.7791 21.7812 15.6395 21.8624 15.4856 21.9174C15.3317 21.9726 15.1665 22.0006 15 22Z" fill="#5E5E5E"/>
<path d="M15 21C14.7359 20.9956 14.4835 20.8616 14.2967 20.6262C14.1099 20.3908 14.0035 20.0728 14 19.74V1.26C14 0.925831 14.1053 0.605338 14.2929 0.369046C14.4804 0.132754 14.7348 0 15 0C15.2652 0 15.5196 0.132754 15.7071 0.369046C15.8947 0.605338 16 0.925831 16 1.26V19.74C15.9965 20.0728 15.8901 20.3908 15.7033 20.6262C15.5165 20.8616 15.2641 20.9956 15 21Z" fill="#5E5E5E"/>
</svg>
